<svg xmlns="http://www.w3.org/2000/svg" viewBox="0 0 53.5 53.5"><defs><style>.cls-1,.cls-3{fill:#fff;}.cls-2{fill:none;stroke:#71151a;}.cls-2,.cls-3{stroke-miterlimit:10;stroke-width:2px;}.cls-3{stroke:#71151a;}</style></defs><title>Icon</title><g id="Lv_2" data-name="Lv 2"><g id="Livello_1-2" data-name="Lv 1"><path class="cls-1" d="M52,52c-1.45,1.46-2.75-1.69-4.8-1.69s-2.06,2-4.11,2-2.05-2-4.1-2-2.05,2-4.1,2-2-2-4.1-2-2.06,2-4.11,2-2-2-4.1-2-2.05,2-4.11,2-2.05-2-4.1-2-2.05,2-4.11,2-2.05-2-4.11-2S2.84,53.49,1.38,52s1.7-2.75,1.7-4.8-2-2.06-2-4.11,2-2.05,2-4.1-2-2.05-2-4.1,2-2,2-4.1-2-2.06-2-4.11,2-2,2-4.1-2-2.05-2-4.11,2-2.05,2-4.1-2-2.05-2-4.11,2-2.05,2-4.11S-.07,2.84,1.38,1.38s2.75,1.7,4.8,1.7,2.05-2,4.11-2,2.05,2,4.1,2,2.05-2,4.1-2,2.05,2,4.1,2,2.05-2,4.11-2,2.05,2,4.1,2,2.05-2,4.1-2,2.06,2,4.11,2,2.05-2,4.1-2,2.06,2,4.11,2S50.58-.07,52,1.38s-1.69,2.75-1.69,4.8,2,2.05,2,4.11-2,2.05-2,4.1,2,2.05,2,4.1-2,2.05-2,4.1,2,2.05,2,4.11-2,2.05-2,4.1,2,2.05,2,4.1-2,2.06-2,4.11,2,2.05,2,4.1-2.52,2.41-1.95,4.39C51.1,50,53.49,50.58,52,52Z"/><path class="cls-2" d="M52,52c-1.45,1.46-2.75-1.69-4.8-1.69s-2.06,2-4.11,2-2.05-2-4.1-2-2.05,2-4.1,2-2-2-4.1-2-2.06,2-4.11,2-2-2-4.1-2-2.05,2-4.11,2-2.05-2-4.1-2-2.05,2-4.11,2-2.05-2-4.11-2S2.84,53.49,1.38,52s1.7-2.75,1.7-4.8-2-2.06-2-4.11,2-2.05,2-4.1-2-2.05-2-4.1,2-2,2-4.1-2-2.06-2-4.11,2-2,2-4.1-2-2.05-2-4.11,2-2.05,2-4.1-2-2.05-2-4.11,2-2.05,2-4.11S-.07,2.84,1.38,1.38s2.75,1.7,4.8,1.7,2.05-2,4.11-2,2.05,2,4.1,2,2.05-2,4.1-2,2.05,2,4.1,2,2.05-2,4.11-2,2.05,2,4.1,2,2.05-2,4.1-2,2.06,2,4.11,2,2.05-2,4.1-2,2.06,2,4.11,2S50.58-.07,52,1.38s-1.69,2.75-1.69,4.8,2,2.05,2,4.11-2,2.05-2,4.1,2,2.05,2,4.1-2,2.05-2,4.1,2,2.05,2,4.11-2,2.05-2,4.1,2,2.05,2,4.1-2,2.06-2,4.11,2,2.05,2,4.1-2.52,2.41-1.95,4.39C51.1,50,53.49,50.58,52,52Z"/><path class="cls-3" d="M8.71,14.67c2.85-2.57,22.34,3,26.68,15.48,1.34,3.85-1.2,14.26-1,11.6C34.9,35.24,4.67,18.32,8.71,14.67Z"/><path class="cls-3" d="M30.19,8.94C33.2,7.27,43.9,18,41.44,31.3c-.76,4.08-6.93,13.37-5.66,10.88C38.92,36.06,25.91,11.31,30.19,8.94Z"/></g></g></svg>